<svg xmlns="http://www.w3.org/2000/svg" width="238.3" height="226.3" viewBox="0 0 238.3 226.3"><circle cx="35" cy="34.1" r="34.6" fill="#673200"/><circle cx="37.5" cy="42.9" r="14.8" fill="#ffaaca"/><circle cx="203.2" cy="34.1" r="34.6" fill="#673200"/><circle cx="200.8" cy="42.9" r="14.8" fill="#ffaaca"/><circle cx="119.1" cy="118.1" r="108.1" fill="#673200"/><circle cx="119.1" cy="157.6" r="42.3" fill="#c65b00"/><path fill="#c65b00" d="M165.1 20.3A65.6 65.6 0 0 0 207 136.4a64.2 64.2 0 0 0 19.2-2.9 111.7 111.7 0 0 0 1.1-15.4 108.1 108.1 0 0 0-62.2-97.8zM11 118.1a111.7 111.7 0 0 0 1.1 15.4 64 64 0 0 0 19.1 2.9 65.7 65.7 0 0 0 65.7-65.7 65.3 65.3 0 0 0-23.8-50.4A108 108 0 0 0 11 118.1z"/><path fill="none" stroke="#000" stroke-linecap="round" stroke-linejoin="round" stroke-width="3" d="M92.4 172a37.2 37.2 0 0 0 52.7 0"/><circle cx="119.1" cy="123" r="13" fill="#ffaaca"/><circle cx="75.9" cy="91.4" r="9.3"/><circle cx="162.4" cy="91.4" r="9.3"/></svg>